<svg width="32" height="29" viewBox="0 0 32 29" fill="none" xmlns="http://www.w3.org/2000/svg">
<g filter="url(#filter0_d_2501_769)">
<path d="M26.7989 4.79978H10.5541L8.69178 0.703167C8.59644 0.493535 8.44279 0.315766 8.24916 0.191081C8.05554 0.0663969 7.83013 6.37684e-05 7.59983 0H4V2.39989H6.82707L12.5076 14.8961C12.6029 15.1057 12.7566 15.2835 12.9502 15.4082C13.1438 15.5329 13.3693 15.5992 13.5996 15.5993H23.1991C23.6791 15.5993 24.1135 15.3137 24.3019 14.8721L27.9017 6.4725C27.9806 6.29003 28.0128 6.0908 27.9954 5.89277C27.9781 5.69474 27.9117 5.50414 27.8023 5.33818C27.6929 5.17221 27.5439 5.03609 27.3687 4.9421C27.1935 4.8481 26.9977 4.79919 26.7989 4.79978Z" fill="black"/>
<path d="M14.1996 20.3991C15.1936 20.3991 15.9995 19.5933 15.9995 18.5992C15.9995 17.6052 15.1936 16.7993 14.1996 16.7993C13.2055 16.7993 12.3997 17.6052 12.3997 18.5992C12.3997 19.5933 13.2055 20.3991 14.1996 20.3991Z" fill="black"/>
<path d="M22.5992 20.3991C23.5933 20.3991 24.3991 19.5933 24.3991 18.5992C24.3991 17.6052 23.5933 16.7993 22.5992 16.7993C21.6052 16.7993 20.7993 17.6052 20.7993 18.5992C20.7993 19.5933 21.6052 20.3991 22.5992 20.3991Z" fill="black"/>
</g>
<defs>
<filter id="filter0_d_2501_769" x="0" y="0" width="32" height="28.3992" filterUnits="userSpaceOnUse" color-interpolation-filters="sRGB">
<feFlood flood-opacity="0" result="BackgroundImageFix"/>
<feColorMatrix in="SourceAlpha" type="matrix" values="0 0 0 0 0 0 0 0 0 0 0 0 0 0 0 0 0 0 127 0" result="hardAlpha"/>
<feOffset dy="4"/>
<feGaussianBlur stdDeviation="2"/>
<feComposite in2="hardAlpha" operator="out"/>
<feColorMatrix type="matrix" values="0 0 0 0 0 0 0 0 0 0 0 0 0 0 0 0 0 0 0.25 0"/>
<feBlend mode="normal" in2="BackgroundImageFix" result="effect1_dropShadow_2501_769"/>
<feBlend mode="normal" in="SourceGraphic" in2="effect1_dropShadow_2501_769" result="shape"/>
</filter>
</defs>
</svg>
